<?xml version="1.0" encoding="UTF-8"?>
<svg id="_Слой_1" data-name="Слой_1" xmlns="http://www.w3.org/2000/svg" version="1.1" viewBox="0 0 1848.76 1039.42">
  <!-- Generator: Adobe Illustrator 30.3.0, SVG Export Plug-In . SVG Version: 2.1.3 Build 182)  -->
  <path d="M1294.02,825.56c12.8-10.94,25.55-23.13,38-42,36.27-53.56,42.55-121.85,69.56-222.67,13.2-49.26,28.08-69.16,50.67-138.67,20.67-63.61,48.67-115.89,55.78-230.28" fill="none" stroke="#7db5a9" stroke-miterlimit="10" stroke-width="5"/>
  <path d="M1375.91,765.22c-15.78,4.22-32.67,14-46.89,23.78" fill="none" stroke="#7db5a9" stroke-linecap="round" stroke-miterlimit="10" stroke-width="3"/>
  <path d="M1318.8,744.78c5.56,12.89,8.22,32.67,2,53.11" fill="none" stroke="#7db5a9" stroke-linecap="round" stroke-miterlimit="10" stroke-width="3"/>
  <path d="M1401.91,692.33c-13.78,6.44-31.78,19.11-40.89,32.89" fill="none" stroke="#7db5a9" stroke-linecap="round" stroke-miterlimit="10" stroke-width="3"/>
  <path d="M1420.68,633.11c-14.06,4.89-37.44,25-45.39,39.39" fill="none" stroke="#7db5a9" stroke-linecap="round" stroke-miterlimit="10" stroke-width="3"/>
  <path d="M1439.24,566.22c-15.11,4.44-42.77,30.02-50.89,45.33" fill="none" stroke="#7db5a9" stroke-linecap="round" stroke-miterlimit="10" stroke-width="3"/>
  <path d="M1396.71,472.93c6.22,13.11,12.44,38,13.33,56.44" fill="none" stroke="#7db5a9" stroke-linecap="round" stroke-miterlimit="10" stroke-width="3"/>
  <path d="M1365.38,565.38c7.76,11.69,20.15,44.64,19.56,64.44" fill="none" stroke="#7db5a9" stroke-linecap="round" stroke-miterlimit="10" stroke-width="3"/>
  <path d="M1344.13,648.11c6.89,22.22,20.67,40.22,17.78,70" fill="none" stroke="#7db5a9" stroke-linecap="round" stroke-miterlimit="10" stroke-width="3"/>
  <path d="M1347.57,777.11c30.47,3.78,52.71-7.06,64.89-29.33-26.56-3.63-49.23,6.57-64.89,29.33Z" fill="none" stroke="#7db5a9" stroke-linecap="round" stroke-miterlimit="10" stroke-width="5"/>
  <path d="M1324.68,774.33c-17.22-15.94-24.89-42.72-16.78-75.39,22.78,26.67,26.11,54.56,16.78,75.39Z" fill="none" stroke="#7db5a9" stroke-linecap="round" stroke-miterlimit="10" stroke-width="5"/>
  <path d="M1380.46,705.33c30.47,3.78,47.78-15.56,54.67-33.33-26.67.67-43.56,10.67-54.67,33.33Z" fill="none" stroke="#7db5a9" stroke-linecap="round" stroke-miterlimit="10" stroke-width="5"/>
  <path d="M1483.71,459.38c-14.17.83-46.56,18.56-55.67,32.33" fill="none" stroke="#7db5a9" stroke-linecap="round" stroke-miterlimit="10" stroke-width="3"/>
  <path d="M1500.78,373.09c-14.94,7.73-35.89,25.23-44.74,36.62" fill="none" stroke="#7db5a9" stroke-linecap="round" stroke-miterlimit="10" stroke-width="3"/>
  <path d="M1459.05,468.21c32.83,8.83,52.61-4.72,59.5-22.5-25.83-2.17-48.39-.17-59.5,22.5Z" fill="none" stroke="#7db5a9" stroke-linecap="round" stroke-miterlimit="10" stroke-width="5"/>
  <path d="M1094.05,554.04c-15.51,7.89-36.37,25-39.76,34.92" fill="none" stroke="#7db5a9" stroke-linecap="round" stroke-miterlimit="10" stroke-width="3"/>
  <path d="M1073.45,567.73c24.93,1.87,45.07-20.23,47.6-34.02-18.96,1.99-42.69,16.12-47.6,34.02Z" fill="none" stroke="#7db5a9" stroke-linecap="round" stroke-miterlimit="10" stroke-width="5"/>
  <path d="M736.29,529.92c19.32-15.86,18.64-45.75,10.95-57.47-12.34,14.53-19.76,41.13-10.95,57.47Z" fill="none" stroke="#7db5a9" stroke-linecap="round" stroke-miterlimit="10" stroke-width="5"/>
  <path d="M754.79,565.31c-11.9,7.87-27.3,23.76-29.14,32.16" fill="none" stroke="#7db5a9" stroke-linecap="round" stroke-miterlimit="10" stroke-width="3"/>
  <path d="M739.28,578.37c20.49-.8,34.84-20.68,35.61-32.15-15.26,3.39-33.28,17.11-35.61,32.15Z" fill="none" stroke="#7db5a9" stroke-linecap="round" stroke-miterlimit="10" stroke-width="5"/>
  <path d="M1121.38,472.71c-15.51,7.89-36.37,25-39.76,34.92" fill="none" stroke="#7db5a9" stroke-linecap="round" stroke-miterlimit="10" stroke-width="3"/>
  <path d="M1100.78,486.39c24.93,1.87,45.07-20.23,47.6-34.02-18.96,1.99-42.69,16.12-47.6,34.02Z" fill="none" stroke="#7db5a9" stroke-linecap="round" stroke-miterlimit="10" stroke-width="5"/>
  <path d="M1129.14,390.72c-10.25,9.46-22.64,27.19-23.1,35.59" fill="none" stroke="#7db5a9" stroke-linecap="round" stroke-miterlimit="10" stroke-width="3"/>
  <path d="M1116.22,405.75c19.65-3.98,30.39-25.4,29.35-36.59-14.2,5.65-29.44,21.71-29.35,36.59Z" fill="none" stroke="#7db5a9" stroke-linecap="round" stroke-miterlimit="10" stroke-width="5"/>
  <path d="M1533.19,271.69c-12.66,3.81-34.81,21.26-41.14,32.69" fill="none" stroke="#7db5a9" stroke-linecap="round" stroke-miterlimit="10" stroke-width="3"/>
  <path d="M1515.03,282.2c24.47,6.87,40.37-10.6,43.64-26.31-20.67,2.02-38.16,6.84-43.64,26.31Z" fill="none" stroke="#7db5a9" stroke-linecap="round" stroke-miterlimit="10" stroke-width="5"/>
  <path d="M1526.98,224.32c-7.61,5.64-21.6,24.39-24.43,33.89" fill="none" stroke="#7db5a9" stroke-linecap="round" stroke-miterlimit="10" stroke-width="3"/>
  <path d="M1516.42,238.26c21.58-7.05,29.1-25.6,26.46-38.05-15.23,8.22-28.52,21.32-26.46,38.05Z" fill="none" stroke="#7db5a9" stroke-linecap="round" stroke-miterlimit="10" stroke-width="5"/>
  <path d="M1355.68,677.67c-23-17.33-33-51.67-27.67-75.67,30.67,30.33,33.67,56,27.67,75.67Z" fill="none" stroke="#7db5a9" stroke-linecap="round" stroke-miterlimit="10" stroke-width="5"/>
  <path d="M1434.47,395.91c5.16,16.64,9.49,32.4,7.33,54.7" fill="none" stroke="#7db5a9" stroke-linecap="round" stroke-miterlimit="10" stroke-width="3"/>
  <path d="M1481.28,240.43c6.39,14.63,12.85,34.79,10.29,57.74" fill="none" stroke="#7db5a9" stroke-linecap="round" stroke-miterlimit="10" stroke-width="3"/>
  <path d="M1458.71,325.6c6.39,14.63,12.09,29.62,9.53,52.57" fill="none" stroke="#7db5a9" stroke-linecap="round" stroke-miterlimit="10" stroke-width="3"/>
  <path d="M1440.46,420.39c-17.23-12.98-22.66-44.25-18.67-62.22,22.97,22.72,23.16,47.49,18.67,62.22Z" fill="none" stroke="#7db5a9" stroke-linecap="round" stroke-miterlimit="10" stroke-width="5"/>
  <path d="M935.27,830.49c12.8-10.94,35.64-27.17,48.08-46.04,36.27-53.56,47.76-118.56,76.25-218.96,14-49.33,60-118,47.01-198.91" fill="none" stroke="#7db5a9" stroke-miterlimit="10" stroke-width="5"/>
  <path d="M581.81,830.59c79.1-41.85,121.4-149.58,142.42-232.27,7.44-30.33,12.86-61.2,15.43-92.31.08-.96.92-1.67,1.87-1.59.96.08,1.67.91,1.59,1.87-2.46,31.35-7.78,62.41-15.15,92.95-21.01,84.13-63.5,192.97-143.9,235.81-2.91,1.38-5.26-2.79-2.26-4.46h0Z" fill="#7db5a9"/>
  <path d="M1027.24,766.11c-16.58,3.6-33.31,13.5-46.89,23.78" fill="none" stroke="#7db5a9" stroke-linecap="round" stroke-miterlimit="10" stroke-width="3"/>
  <path d="M968.6,755.82c2.92,13.43,6.04,26.04,0,45.33" fill="none" stroke="#7db5a9" stroke-linecap="round" stroke-miterlimit="10" stroke-width="3"/>
  <path d="M1053.24,693.22c-13.78,6.44-31.78,19.11-40.89,32.89" fill="none" stroke="#7db5a9" stroke-linecap="round" stroke-miterlimit="10" stroke-width="3"/>
  <path d="M1079.49,628.6c-12.12.62-39.86,29.64-48.44,44" fill="none" stroke="#7db5a9" stroke-linecap="round" stroke-miterlimit="10" stroke-width="3"/>
  <path d="M676.13,653.44c6.89,22.22,16.11,23.33,13.22,53.11" fill="none" stroke="#7db5a9" stroke-linecap="round" stroke-miterlimit="10" stroke-width="3"/>
  <path d="M1051.46,505c6.89,22.22,14.03,24.04,11.14,53.82" fill="none" stroke="#7db5a9" stroke-linecap="round" stroke-miterlimit="10" stroke-width="3"/>
  <path d="M1085.8,431.33c6.89,22.22,8.36,24.71,5.47,54.49" fill="none" stroke="#7db5a9" stroke-linecap="round" stroke-miterlimit="10" stroke-width="3"/>
  <path d="M998.91,778c30.47,3.78,52.71-7.06,64.89-29.33-26.56-3.63-49.23,6.57-64.89,29.33Z" fill="none" stroke="#7db5a9" stroke-linecap="round" stroke-miterlimit="10" stroke-width="5"/>
  <path d="M698.8,748.78c-16.58,3.6-33.31,13.5-46.89,23.78" fill="none" stroke="#7db5a9" stroke-linecap="round" stroke-miterlimit="10" stroke-width="3"/>
  <path d="M670.46,760.67c30.47,3.78,52.71-7.06,64.89-29.33-26.56-3.63-49.23,6.57-64.89,29.33Z" fill="none" stroke="#7db5a9" stroke-linecap="round" stroke-miterlimit="10" stroke-width="5"/>
  <path d="M325.04,765.67c-15.96,3.46-32.07,12.99-45.14,22.89" fill="none" stroke="#7db5a9" stroke-linecap="round" stroke-miterlimit="10" stroke-width="3"/>
  <path d="M297.77,777.11c29.34,3.64,50.74-6.79,62.46-28.24-25.57-3.5-47.39,6.32-62.46,28.24Z" fill="none" stroke="#7db5a9" stroke-linecap="round" stroke-miterlimit="10" stroke-width="5"/>
  <path d="M971.94,783.15c-16.52-24.24-22.51-38.78-12.93-68.81,20.91,27.09,23.04,48.96,12.93,68.81Z" fill="none" stroke="#7db5a9" stroke-linecap="round" stroke-miterlimit="10" stroke-width="5"/>
  <path d="M640.6,738.93c2.92,13.43,6.04,26.04,0,45.33" fill="none" stroke="#7db5a9" stroke-linecap="round" stroke-miterlimit="10" stroke-width="3"/>
  <path d="M643.94,766.27c-16.52-24.24-22.51-38.78-12.93-68.81,20.91,27.09,23.04,48.96,12.93,68.81Z" fill="none" stroke="#7db5a9" stroke-linecap="round" stroke-miterlimit="10" stroke-width="5"/>
  <path d="M271.18,762.16c2.23,10.26,4.61,19.89,0,34.64" fill="none" stroke="#7db5a9" stroke-linecap="round" stroke-miterlimit="10" stroke-width="3"/>
  <path d="M273.73,783.04c-12.62-18.52-17.2-29.63-9.88-52.57,15.97,20.7,17.6,37.41,9.88,52.57Z" fill="none" stroke="#7db5a9" stroke-linecap="round" stroke-miterlimit="10" stroke-width="5"/>
  <path d="M1031.8,706.22c30.47,3.78,47.78-15.56,54.67-33.33-26.67.67-43.56,10.67-54.67,33.33Z" fill="none" stroke="#7db5a9" stroke-linecap="round" stroke-miterlimit="10" stroke-width="5"/>
  <path d="M735.01,653.86c-13.29,7.39-30.36,21.29-38.49,35.67" fill="none" stroke="#7db5a9" stroke-linecap="round" stroke-miterlimit="10" stroke-width="3"/>
  <path d="M714.53,668.33c30.66,1.64,46.57-18.86,52.2-37.07-26.55,2.53-42.7,13.68-52.2,37.07Z" fill="none" stroke="#7db5a9" stroke-linecap="round" stroke-miterlimit="10" stroke-width="5"/>
  <path d="M308.16,740.29c25.4-17.26,25.65-43.21,19.1-61.11-19.6,18.09-25.7,36.75-19.1,61.11Z" fill="none" stroke="#7db5a9" stroke-linecap="round" stroke-miterlimit="10" stroke-width="5"/>
  <path d="M687.68,683c-23-17.33-33-51.67-27.67-75.67,30.67,30.33,33.67,56,27.67,75.67Z" fill="none" stroke="#7db5a9" stroke-linecap="round" stroke-miterlimit="10" stroke-width="5"/>
  <path d="M997.46,681c6.89,22.22,16.11,23.33,13.22,53.11" fill="none" stroke="#7db5a9" stroke-linecap="round" stroke-miterlimit="10" stroke-width="3"/>
  <path d="M1009.02,710.56c-23-17.33-33-51.67-27.67-75.67,30.67,30.33,33.67,56,27.67,75.67Z" fill="none" stroke="#7db5a9" stroke-linecap="round" stroke-miterlimit="10" stroke-width="5"/>
  <path d="M1021.73,609.04c5.97,12.06,13.12,21.51,14.2,38.78" fill="none" stroke="#7db5a9" stroke-linecap="round" stroke-miterlimit="10" stroke-width="3"/>
  <path d="M1016.4,559.26c5.94,7.86,17.76,29.34,16.43,54.23" fill="none" stroke="#7db5a9" stroke-linecap="round" stroke-miterlimit="10" stroke-width="3"/>
  <path d="M1048.07,453.26c5.94,7.86,12.96,32.26,14.09,56.01" fill="none" stroke="#7db5a9" stroke-linecap="round" stroke-miterlimit="10" stroke-width="3"/>
  <path d="M1031.04,624.86c-14.72-7.79-23.58-26.48-22.74-40.67,20.3,14.51,24.36,28.89,22.74,40.67Z" fill="none" stroke="#7db5a9" stroke-linecap="round" stroke-miterlimit="10" stroke-width="5"/>
  <path d="M1058.93,525.04c-17.43-6.7-25.04-32.63-21.63-47.86,24.09,15.19,26.07,36.58,21.63,47.86Z" fill="none" stroke="#7db5a9" stroke-linecap="round" stroke-miterlimit="10" stroke-width="5"/>
  <path d="M709.33,579.03c4.39,22.85,11.29,25.45,5.13,54.72" fill="none" stroke="#7db5a9" stroke-linecap="round" stroke-miterlimit="10" stroke-width="3"/>
  <path d="M714.55,599.78c-16.58-8.59-21.28-35.2-16.21-49.96,22.27,17.76,21.87,39.24,16.21,49.96Z" fill="none" stroke="#7db5a9" stroke-linecap="round" stroke-miterlimit="10" stroke-width="5"/>
  <path d="M1090.59,450.42c-14.04-8.37-17.84-33.59-13.43-47.46,18.8,17.12,18.32,37.41,13.43,47.46Z" fill="none" stroke="#7db5a9" stroke-linecap="round" stroke-miterlimit="10" stroke-width="5"/>
  <path d="M1436.23,569.54" fill="none" stroke="#7db5a9" stroke-linecap="round" stroke-miterlimit="10" stroke-width="4"/>
  <g>
    <path d="M1457.37,526.9" fill="#f9d4f2" stroke="#7db5a9" stroke-linecap="round" stroke-miterlimit="10" stroke-width="4"/>
    <path d="M1458.96,553.61l-1.67-25.67c-12.5-16.5-32.83-.17-22.17,13.83l23.83,11.83Z" fill="#f9d4f2" stroke="#7db5a9" stroke-linecap="round" stroke-miterlimit="10" stroke-width="4"/>
    <path d="M1459.15,554.1l21.39-14.28c8.04-19.08-16.27-28.52-23.06-12.28l1.67,26.56Z" fill="#f9d4f2" stroke="#7db5a9" stroke-linecap="round" stroke-miterlimit="10" stroke-width="4"/>
    <path d="M1484.6,566.78" fill="#f9d4f2" stroke="#7db5a9" stroke-linecap="round" stroke-miterlimit="10" stroke-width="4"/>
    <path d="M1460.65,553.95l23.08,11.36c20.54-2.6,16.52-28.37-.93-26.11l-22.14,14.75Z" fill="#f9d4f2" stroke="#7db5a9" stroke-linecap="round" stroke-miterlimit="10" stroke-width="4"/>
    <path d="M1460.14,553.87l1.7,25.66c12.52,16.48,32.83.12,22.15-13.86l-23.85-11.8Z" fill="#f9d4f2" stroke="#7db5a9" stroke-linecap="round" stroke-miterlimit="10" stroke-width="4"/>
    <path d="M1458.63,554.02l-21.46,14.18c-8.13,19.04,16.14,28.59,23.01,12.39l-1.55-26.56Z" fill="#f9d4f2" stroke="#7db5a9" stroke-linecap="round" stroke-miterlimit="10" stroke-width="4"/>
    <path d="M1458.96,553.61l-23.01-11.5c-20.55,2.48-16.69,28.27.78,26.12l22.23-14.62Z" fill="#f9d4f2" stroke="#7db5a9" stroke-linecap="round" stroke-miterlimit="10" stroke-width="4"/>
    <g>
      <line x1="1457.3" y1="553.72" x2="1444.07" y2="555.28" fill="#f9d4f2"/>
      <path d="M1457.37,554.36l-13.01,3.32c-3.58.72-4.22-4.67-.56-4.8,0,0,13.43.21,13.43.21.74,0,.87,1.1.15,1.27h0Z" fill="#7db5a9"/>
    </g>
    <g>
      <line x1="1458.74" y1="552.39" x2="1450.8" y2="542.01" fill="#f9d4f2"/>
      <path d="M1458.23,552.78l-9.35-9.3c-2.47-2.69,1.88-6.03,3.84-2.93,0,0,6.53,11.45,6.53,11.45.38.63-.52,1.31-1.02.78h0Z" fill="#7db5a9"/>
    </g>
    <g>
      <line x1="1458.63" y1="552.83" x2="1453.25" y2="567.13" fill="#f9d4f2"/>
      <path d="M1459.23,553.06l-3.72,14.92c-1.03,3.43-6.01,1.56-4.52-1.7,0,0,7.04-13.67,7.04-13.67.34-.67,1.39-.27,1.2.45h0Z" fill="#7db5a9"/>
    </g>
    <g>
      <line x1="1459.52" y1="554.17" x2="1468.91" y2="566.35" fill="#f9d4f2"/>
      <path d="M1460.02,553.78l10.8,11.1c2.38,2.66-1.85,5.94-3.82,2.95,0,0-7.99-13.27-7.99-13.27-.39-.64.5-1.32,1.01-.78h0Z" fill="#7db5a9"/>
    </g>
    <g>
      <line x1="1459.63" y1="552.28" x2="1466.58" y2="540.9" fill="#f9d4f2"/>
      <path d="M1459.08,551.94l5.44-12.3c1.64-3.26,6.27-.43,4.12,2.52,0,0-8.47,10.45-8.47,10.45-.45.58-1.41,0-1.09-.67h0Z" fill="#7db5a9"/>
    </g>
    <g>
      <line x1="1461.52" y1="553.17" x2="1474.41" y2="553.72" fill="#f9d4f2"/>
      <path d="M1461.54,552.53l12.97-1.22c3.66-.16,3.43,5.3-.21,4.82,0,0-12.81-2.33-12.81-2.33-.73-.12-.68-1.22.06-1.28h0Z" fill="#7db5a9"/>
    </g>
  </g>
  <g>
    <path d="M1520.98,331.79" fill="#f9d4f2" stroke="#7db5a9" stroke-linecap="round" stroke-miterlimit="10" stroke-width="4"/>
    <path d="M1522.57,358.5l-1.67-25.67c-12.5-16.5-32.83-.17-22.17,13.83l23.83,11.83Z" fill="#f9d4f2" stroke="#7db5a9" stroke-linecap="round" stroke-miterlimit="10" stroke-width="4"/>
    <path d="M1522.76,358.99l21.39-14.28c8.04-19.08-16.27-28.52-23.06-12.28l1.67,26.56Z" fill="#f9d4f2" stroke="#7db5a9" stroke-linecap="round" stroke-miterlimit="10" stroke-width="4"/>
    <path d="M1548.21,371.67" fill="#f9d4f2" stroke="#7db5a9" stroke-linecap="round" stroke-miterlimit="10" stroke-width="4"/>
    <path d="M1524.27,358.84l23.08,11.36c20.54-2.6,16.52-28.37-.93-26.11l-22.14,14.75Z" fill="#f9d4f2" stroke="#7db5a9" stroke-linecap="round" stroke-miterlimit="10" stroke-width="4"/>
    <path d="M1523.75,358.76l1.7,25.66c12.52,16.48,32.83.12,22.15-13.86l-23.85-11.8Z" fill="#f9d4f2" stroke="#7db5a9" stroke-linecap="round" stroke-miterlimit="10" stroke-width="4"/>
    <path d="M1522.24,358.91l-21.46,14.18c-8.13,19.04,16.14,28.59,23.01,12.39l-1.55-26.56Z" fill="#f9d4f2" stroke="#7db5a9" stroke-linecap="round" stroke-miterlimit="10" stroke-width="4"/>
    <path d="M1522.57,358.5l-23.01-11.5c-20.55,2.48-16.69,28.27.78,26.12l22.23-14.62Z" fill="#f9d4f2" stroke="#7db5a9" stroke-linecap="round" stroke-miterlimit="10" stroke-width="4"/>
    <g>
      <line x1="1520.91" y1="358.61" x2="1507.68" y2="360.17" fill="#f9d4f2"/>
      <path d="M1520.98,359.25l-13.01,3.32c-3.58.72-4.22-4.67-.56-4.8,0,0,13.43.21,13.43.21.74,0,.87,1.1.15,1.27h0Z" fill="#7db5a9"/>
    </g>
    <g>
      <line x1="1522.35" y1="357.28" x2="1514.41" y2="346.9" fill="#f9d4f2"/>
      <path d="M1521.84,357.67l-9.35-9.3c-2.47-2.69,1.88-6.03,3.84-2.93,0,0,6.53,11.45,6.53,11.45.38.63-.52,1.31-1.02.78h0Z" fill="#7db5a9"/>
    </g>
    <g>
      <line x1="1522.24" y1="357.72" x2="1516.86" y2="372.01" fill="#f9d4f2"/>
      <path d="M1522.84,357.95l-3.72,14.92c-1.03,3.43-6.01,1.56-4.52-1.7,0,0,7.04-13.67,7.04-13.67.34-.67,1.39-.27,1.2.45h0Z" fill="#7db5a9"/>
    </g>
    <g>
      <line x1="1523.13" y1="359.06" x2="1532.52" y2="371.24" fill="#f9d4f2"/>
      <path d="M1523.63,358.67l10.8,11.1c2.38,2.66-1.85,5.94-3.82,2.95,0,0-7.99-13.27-7.99-13.27-.39-.64.5-1.32,1.01-.78h0Z" fill="#7db5a9"/>
    </g>
    <g>
      <line x1="1523.24" y1="357.17" x2="1530.19" y2="345.79" fill="#f9d4f2"/>
      <path d="M1522.69,356.83l5.44-12.3c1.64-3.26,6.27-.43,4.12,2.52,0,0-8.47,10.45-8.47,10.45-.45.58-1.41,0-1.09-.67h0Z" fill="#7db5a9"/>
    </g>
    <g>
      <line x1="1525.13" y1="358.06" x2="1538.02" y2="358.61" fill="#f9d4f2"/>
      <path d="M1525.16,357.42l12.97-1.22c3.66-.16,3.43,5.3-.21,4.82,0,0-12.81-2.33-12.81-2.33-.73-.12-.68-1.22.06-1.28h0Z" fill="#7db5a9"/>
    </g>
  </g>
  <g>
    <path d="M1435.17,273.19" fill="#f9d4f2" stroke="#7db5a9" stroke-linecap="round" stroke-miterlimit="10" stroke-width="4"/>
    <path d="M1441.53,297.67l-6.24-23.5c-14.61-13.02-30.49,5.85-18.03,16.88l24.27,6.62Z" fill="#f9d4f2" stroke="#7db5a9" stroke-linecap="round" stroke-miterlimit="10" stroke-width="4"/>
    <path d="M1441.79,298.09l17.24-17.15c3.97-19.16-20.31-23.48-23.64-7.18l6.4,24.33Z" fill="#f9d4f2" stroke="#7db5a9" stroke-linecap="round" stroke-miterlimit="10" stroke-width="4"/>
    <path d="M1467.71,305.2" fill="#f9d4f2" stroke="#7db5a9" stroke-linecap="round" stroke-miterlimit="10" stroke-width="4"/>
    <path d="M1443.16,297.67l23.48,6.32c18.57-6.17,10.14-29.34-5.64-24.05l-17.84,17.73Z" fill="#f9d4f2" stroke="#7db5a9" stroke-linecap="round" stroke-miterlimit="10" stroke-width="4"/>
    <path d="M1442.66,297.69l6.27,23.5c14.63,13,30.48-5.89,18.01-16.91l-24.28-6.59Z" fill="#f9d4f2" stroke="#7db5a9" stroke-linecap="round" stroke-miterlimit="10" stroke-width="4"/>
    <path d="M1441.29,298.11l-17.32,17.07c-4.06,19.15,20.2,23.57,23.6,7.29l-6.29-24.36Z" fill="#f9d4f2" stroke="#7db5a9" stroke-linecap="round" stroke-miterlimit="10" stroke-width="4"/>
    <path d="M1441.53,297.67l-23.44-6.46c-18.61,6.06-10.32,29.28,5.49,24.09l17.95-17.63Z" fill="#f9d4f2" stroke="#7db5a9" stroke-linecap="round" stroke-miterlimit="10" stroke-width="4"/>
    <g>
      <line x1="1440" y1="298.08" x2="1428.02" y2="301.93" fill="#f9d4f2"/>
      <path d="M1440.2,298.68l-11.44,5.55c-3.39,1.43-5.07-3.78-1.48-4.6,0,0,12.53-2.17,12.53-2.17.72-.13,1.05.91.39,1.22h0Z" fill="#7db5a9"/>
    </g>
    <g>
      <line x1="1441.1" y1="296.57" x2="1431.84" y2="288.4" fill="#f9d4f2"/>
      <path d="M1440.67,297.05l-10.43-6.84c-2.98-2.18.66-6.31,3.2-3.62,0,0,8.08,9.5,8.08,9.5.49.54-.26,1.37-.85.96h0Z" fill="#7db5a9"/>
    </g>
    <g>
      <line x1="1441.07" y1="297.01" x2="1438.69" y2="311.25" fill="#f9d4f2"/>
      <path d="M1441.71,297.11l-.63,14.53c-.33,3.59-5.62,2.72-4.76-.8,0,0,4.13-13.95,4.13-13.95.21-.72,1.3-.53,1.26.21h0Z" fill="#7db5a9"/>
    </g>
    <g>
      <line x1="1442.14" y1="298.08" x2="1453.08" y2="307.66" fill="#f9d4f2"/>
      <path d="M1442.56,297.6l12.11,8.25c2.89,2.15-.66,6.21-3.18,3.63,0,0-9.77-10.92-9.77-10.92-.51-.54.25-1.39.84-.96h0Z" fill="#7db5a9"/>
    </g>
    <g>
      <line x1="1441.9" y1="296.31" x2="1446.27" y2="284.49" fill="#f9d4f2"/>
      <path d="M1441.3,296.09l2.7-12.44c.96-3.55,6.11-1.65,4.53,1.67,0,0-6.03,11.21-6.03,11.21-.34.65-1.36.27-1.2-.44h0Z" fill="#7db5a9"/>
    </g>
    <g>
      <line x1="1443.82" y1="296.79" x2="1455.87" y2="294.95" fill="#f9d4f2"/>
      <path d="M1443.72,296.16l11.79-3.59c3.59-.89,4.42,4.55.73,4.77,0,0-12.33.09-12.33.09-.73.01-.89-1.06-.19-1.26h0Z" fill="#7db5a9"/>
    </g>
  </g>
  <g>
    <path d="M1367.53,418.21" fill="#f9d4f2" stroke="#7db5a9" stroke-linecap="round" stroke-miterlimit="10" stroke-width="4"/>
    <path d="M1375.84,443.64l-8.12-24.41c-16.27-12.79-31.8,8.16-17.94,19l26.05,5.41Z" fill="#f9d4f2" stroke="#7db5a9" stroke-linecap="round" stroke-miterlimit="10" stroke-width="4"/>
    <path d="M1376.15,444.07l17.08-19.23c2.94-20.49-22.97-23.46-25.42-6.03l8.35,25.27Z" fill="#f9d4f2" stroke="#7db5a9" stroke-linecap="round" stroke-miterlimit="10" stroke-width="4"/>
    <path d="M1403.98,449.88" fill="#f9d4f2" stroke="#7db5a9" stroke-linecap="round" stroke-miterlimit="10" stroke-width="4"/>
    <path d="M1377.57,443.54l25.2,5.14c19.2-7.73,8.79-31.64-7.52-25.02l-17.68,19.89Z" fill="#f9d4f2" stroke="#7db5a9" stroke-linecap="round" stroke-miterlimit="10" stroke-width="4"/>
    <path d="M1377.04,443.59l8.15,24.39c16.29,12.77,31.79-8.21,17.91-19.03l-26.06-5.37Z" fill="#f9d4f2" stroke="#7db5a9" stroke-linecap="round" stroke-miterlimit="10" stroke-width="4"/>
    <path d="M1375.63,444.12l-17.17,19.16c-3.04,20.48,22.86,23.57,25.39,6.15l-8.23-25.3Z" fill="#f9d4f2" stroke="#7db5a9" stroke-linecap="round" stroke-miterlimit="10" stroke-width="4"/>
    <path d="M1375.84,443.64l-25.17-5.29c-19.25,7.61-8.98,31.58,7.37,25.07l17.8-19.78Z" fill="#f9d4f2" stroke="#7db5a9" stroke-linecap="round" stroke-miterlimit="10" stroke-width="4"/>
    <g>
      <line x1="1374.26" y1="444.17" x2="1361.86" y2="449.03" fill="#f9d4f2"/>
      <path d="M1374.49,444.77l-11.75,6.51c-3.28,1.61-5.26-3.45-1.76-4.5,0,0,13.04-3.2,13.04-3.2.72-.18,1.12.84.47,1.19h0Z" fill="#7db5a9"/>
    </g>
    <g>
      <line x1="1375.32" y1="442.52" x2="1365.01" y2="434.49" fill="#f9d4f2"/>
      <path d="M1374.93,443.02l-11.4-6.62c-3.07-1.99.27-6.3,2.97-3.81,0,0,9.22,9.42,9.22,9.42.53.51-.17,1.39-.79,1.01h0Z" fill="#7db5a9"/>
    </g>
    <g>
      <line x1="1375.32" y1="442.98" x2="1373.74" y2="458.17" fill="#f9d4f2"/>
      <path d="M1375.96,443.04l.18,15.37c-.13,3.58-5.42,3.04-4.8-.5,0,0,3.35-15.01,3.35-15.01.16-.73,1.27-.62,1.27.13h0Z" fill="#7db5a9"/>
    </g>
    <g>
      <line x1="1376.52" y1="444.04" x2="1388.7" y2="453.44" fill="#f9d4f2"/>
      <path d="M1376.91,443.53l13.26,8c2.98,1.99-.27,6.2-2.95,3.82,0,0-11.09-10.81-11.09-10.81-.55-.51.16-1.41.78-1.01h0Z" fill="#7db5a9"/>
    </g>
    <g>
      <line x1="1376.15" y1="442.19" x2="1379.99" y2="429.42" fill="#f9d4f2"/>
      <path d="M1375.54,442l2.14-13.28c.76-3.57,5.96-2.01,4.62,1.39,0,0-5.54,12.25-5.54,12.25-.3.68-1.35.36-1.22-.37h0Z" fill="#7db5a9"/>
    </g>
    <g>
      <line x1="1378.2" y1="442.57" x2="1390.81" y2="439.84" fill="#f9d4f2"/>
      <path d="M1378.07,441.94l12.23-4.46c3.5-1.08,4.66,4.25,1.02,4.72,0,0-12.98.99-12.98.99-.73.06-.96-1.01-.27-1.25h0Z" fill="#7db5a9"/>
    </g>
  </g>
  <path d="M1493.05,522.38c4.21,1.19,14.98-13.68,13.86-25.79-.12-1.3-1.57-2.1-2.85-2.09-7.35.04-16.44,7.9-22.67,14.88" fill="#f9d4f2" stroke="#7db5a9" stroke-linecap="round" stroke-miterlimit="10" stroke-width="3"/>
  <g>
    <path d="M1431.3,635.21c3.65,4.28,20.08-2.13,24.3-16.08.37-1.21-.66-2.35-1.75-2.97-7.23-4.16-20.88-.89-28.05,5.22" fill="#f9d4f2" stroke="#7db5a9" stroke-linecap="round" stroke-miterlimit="10" stroke-width="3"/>
    <g>
      <line x1="1420.68" y1="633.11" x2="1439.13" y2="625.06" fill="#f9d4f2"/>
      <path d="M1420.48,632.65c4.27-5.26,11.62-8.82,18.44-8.06.32.05.54.35.5.67-3.64,5.64-11.99,8.8-18.54,8.3-.43-.04-.67-.58-.4-.92h0Z" fill="#7db5a9"/>
    </g>
    <g>
      <line x1="1419.9" y1="632.98" x2="1435.82" y2="612.89" fill="#f9d4f2"/>
      <path d="M1419.51,632.67c.72-8.81,7.2-17.77,15.92-20.1.34-.08.68.13.77.47-.08,8.99-7.53,17.58-15.9,20.25-.4.12-.81-.21-.78-.62h0Z" fill="#7db5a9"/>
    </g>
    <g>
      <line x1="1420.22" y1="634.31" x2="1446.27" y2="636.82" fill="#f9d4f2"/>
      <path d="M1420.26,633.81c7.99-3.51,19.02-2.88,26.06,2.51.26.21.3.59.09.84-7.65,4.22-19.25,2.57-26.25-2.36-.35-.25-.29-.82.1-1h0Z" fill="#7db5a9"/>
    </g>
  </g>
  <g>
    <path d="M1087.77,628.64c3.65,4.28,20.08-2.13,24.3-16.08.37-1.21-.66-2.35-1.75-2.97-7.23-4.16-20.88-.89-28.05,5.22" fill="#f9d4f2" stroke="#7db5a9" stroke-linecap="round" stroke-miterlimit="10" stroke-width="3"/>
    <g>
      <line x1="1077.16" y1="626.54" x2="1095.6" y2="618.49" fill="#f9d4f2"/>
      <path d="M1076.96,626.08c4.27-5.26,11.62-8.82,18.44-8.06.32.05.54.35.5.67-3.64,5.64-11.99,8.8-18.54,8.3-.43-.04-.67-.58-.4-.92h0Z" fill="#7db5a9"/>
    </g>
    <g>
      <line x1="1076.38" y1="626.41" x2="1092.3" y2="606.32" fill="#f9d4f2"/>
      <path d="M1075.99,626.1c.72-8.81,7.2-17.77,15.92-20.1.34-.08.68.13.77.47-.08,8.99-7.53,17.58-15.9,20.25-.4.12-.81-.21-.78-.62h0Z" fill="#7db5a9"/>
    </g>
    <g>
      <line x1="1076.69" y1="627.74" x2="1102.75" y2="630.26" fill="#f9d4f2"/>
      <path d="M1076.74,627.25c7.99-3.51,19.02-2.88,26.06,2.51.26.21.3.59.09.84-7.65,4.22-19.25,2.57-26.25-2.36-.35-.25-.29-.82.1-1h0Z" fill="#7db5a9"/>
    </g>
  </g>
  <path d="M1479.77,524.08c1.83-6.66,7.22-13.11,13.86-15.34.31-.09.64.08.73.39-1.04,6.7-7.62,13.3-13.85,15.62-.41.15-.85-.25-.74-.67h0Z" fill="#7db5a9"/>
  <path d="M1478.88,524.5c-2.87-8.58-.52-19.78,6.54-25.72.27-.22.66-.17.88.1,2.82,6.83,1.24,13.92-1.99,20.16-.31.65-4.55,7.43-5.44,5.46h0Z" fill="#7db5a9"/>
  <path d="M1480.04,525.28c5.99-6.5,16.56-10.5,25.31-8.48.32.08.51.41.43.72-5.37,7.01-16.91,10.31-25.42,8.7-.42-.08-.6-.63-.32-.95h0Z" fill="#7db5a9"/>
  <g>
    <path d="M1336.27,544.93" fill="none" stroke="#7db5a9" stroke-linecap="round" stroke-miterlimit="10" stroke-width="3"/>
    <path d="M1339.93,514.71c-3.11,9.7-2.96,20,.44,30.89,3.16.53,6.57,1.95,10.22,4.22l1.67-9.78c2.09.96,4.51,2.98,7.11,5.56,1.76-1.18,3-6.12,4.22-11.22-5.83-8.43-13.51-15.17-23.67-19.67Z" fill="#f9d4f2"/>
    <path d="M1336.27,544.93c11.92,1.55,17.92,6.82,28.89,20.17.08.09,0,.24-.12.22-9.87-1.49-21.96-9.19-28.77-20.4Z" fill="none" stroke="#7db5a9" stroke-linecap="round" stroke-miterlimit="10" stroke-width="3"/>
    <path d="M1361.16,548.27c.38-7.1,1.56-13.08,4.44-16.67,5.92,9.35,4.73,20.75.02,33.15-.05.13-.24.1-.25-.04-.15-9.92-3.65-18.49-13.11-24.66-1.29,3.14-1.47,6.78-1.11,10.67" fill="none" stroke="#7db5a9" stroke-linecap="round" stroke-miterlimit="10" stroke-width="3"/>
    <path d="M1339.27,545.6c-2.56-11.01-3.04-22.09-.11-30.89,8.4,2.24,18.36,10.03,24.22,18.83" fill="none" stroke="#7db5a9" stroke-linecap="round" stroke-miterlimit="10" stroke-width="3"/>
  </g>
  <path d="M1473.71,439.88c-5.3,6.33-25,16.17-32.83,17" fill="none" stroke="#7db5a9" stroke-linecap="round" stroke-miterlimit="10" stroke-width="3"/>
  <g>
    <path d="M1483.73,438.65c5.04,2.51,17.64-9.84,16.05-24.33-.14-1.25-1.52-1.9-2.78-2.05-8.29-.99-19.55,7.37-23.76,15.81" fill="#f9d4f2" stroke="#7db5a9" stroke-linecap="round" stroke-miterlimit="10" stroke-width="3"/>
    <g>
      <line x1="1473.15" y1="440.88" x2="1486.95" y2="426.24" fill="#f9d4f2"/>
      <path d="M1472.79,440.54c1.86-6.51,7.22-12.67,13.8-14.65.32-.08.64.11.72.42-1.11,6.58-7.61,12.82-13.8,14.91-.41.14-.84-.27-.73-.69h0Z" fill="#7db5a9"/>
    </g>
    <g>
      <line x1="1472.38" y1="441.07" x2="1479.14" y2="416.34" fill="#f9d4f2"/>
      <path d="M1471.9,440.94c-2.79-8.38-.35-19.17,6.75-24.73.28-.21.68-.15.89.13,3.45,8.35-.01,19.08-6.68,24.87-.32.27-.83.13-.96-.26h0Z" fill="#7db5a9"/>
    </g>
    <g>
      <line x1="1473.19" y1="442.17" x2="1498.15" y2="434.26" fill="#f9d4f2"/>
      <path d="M1473.04,441.7c5.93-6.35,16.41-10.12,24.96-7.91.32.09.5.42.41.74-5.38,6.88-16.69,9.91-25.07,8.13-.42-.09-.59-.64-.3-.95h0Z" fill="#7db5a9"/>
    </g>
  </g>
  <g>
    <path d="M1482.6,229.41c4.37-3.75-2.27-20.51-16.56-24.75-1.24-.37-2.4.68-3.04,1.8-4.23,7.41-.82,21.33,5.46,28.64" fill="#f9d4f2" stroke="#7db5a9" stroke-linecap="round" stroke-miterlimit="10" stroke-width="3"/>
    <g>
      <line x1="1480.5" y1="240.26" x2="1472.18" y2="221.45" fill="#f9d4f2"/>
      <path d="M1480.05,240.46c-5.34-4.38-9-11.83-8.32-18.8.04-.32.34-.55.66-.5,5.7,3.68,9,12.27,8.58,18.9-.03.44-.57.67-.91.4h0Z" fill="#7db5a9"/>
    </g>
    <g>
      <line x1="1480.38" y1="241.05" x2="1459.75" y2="224.89" fill="#f9d4f2"/>
      <path d="M1480.07,241.45c-8.92-.77-18.14-7.37-20.63-16.17-.09-.34.11-.68.45-.77,9.14.12,17.94,7.68,20.8,16.15.13.4-.2.82-.62.79h0Z" fill="#7db5a9"/>
    </g>
    <g>
      <line x1="1481.73" y1="240.73" x2="1484.19" y2="214.1" fill="#f9d4f2"/>
      <path d="M1481.24,240.68c-3.53-8.12-2.92-19.42,2.46-26.63.2-.26.58-.3.84-.1,4.25,7.76,2.61,19.67-2.3,26.83-.25.35-.82.3-1-.09h0Z" fill="#7db5a9"/>
    </g>
  </g>
  <g>
    <path d="M1051.03,446.5c4.93-2.98,1.17-20.6-12.22-27.16-1.16-.57-2.48.27-3.29,1.27-5.4,6.61-4.35,20.9.63,29.15" fill="#f9d4f2" stroke="#7db5a9" stroke-linecap="round" stroke-miterlimit="10" stroke-width="3"/>
    <g>
      <line x1="1047.15" y1="456.85" x2="1042.07" y2="436.92" fill="#f9d4f2"/>
      <path d="M1046.67,456.97c-4.54-5.2-6.91-13.16-5.09-19.93.1-.31.42-.48.73-.39,5.01,4.58,6.83,13.59,5.32,20.07-.1.43-.68.57-.97.25h0Z" fill="#7db5a9"/>
    </g>
    <g>
      <line x1="1046.9" y1="457.61" x2="1029.24" y2="438.24" fill="#f9d4f2"/>
      <path d="M1046.53,457.95c-8.67-2.24-16.66-10.28-17.66-19.37-.03-.35.23-.65.57-.68,7.2,1.35,12.19,6.49,15.57,12.56.37.61,3.64,7.84,1.52,7.48h0Z" fill="#7db5a9"/>
    </g>
    <g>
      <line x1="1048.29" y1="457.52" x2="1055.13" y2="431.66" fill="#f9d4f2"/>
      <path d="M1047.81,457.39c-2.13-8.6.35-19.64,6.84-25.86.24-.22.62-.2.84.04,2.33,6.9.47,13.98-2.55,20.26-.34.66-4.28,7.64-5.13,5.56h0Z" fill="#7db5a9"/>
    </g>
  </g>
  <g>
    <path d="M1018.27,552.15c4.37-3.75-2.27-20.51-16.56-24.75-1.24-.37-2.4.68-3.04,1.8-4.23,7.41-.82,21.33,5.46,28.64" fill="#f9d4f2" stroke="#7db5a9" stroke-linecap="round" stroke-miterlimit="10" stroke-width="3"/>
    <g>
      <line x1="1016.17" y1="563.01" x2="1007.85" y2="544.2" fill="#f9d4f2"/>
      <path d="M1015.71,563.21c-5.34-4.38-9-11.83-8.32-18.8.04-.32.34-.55.66-.5,5.7,3.68,9,12.27,8.58,18.9-.03.44-.57.67-.91.4h0Z" fill="#7db5a9"/>
    </g>
    <g>
      <line x1="1016.04" y1="563.8" x2="995.41" y2="547.64" fill="#f9d4f2"/>
      <path d="M1015.73,564.2c-8.92-.77-18.14-7.37-20.63-16.17-.09-.34.11-.68.45-.77,9.14.12,17.94,7.68,20.8,16.15.13.4-.2.82-.62.79h0Z" fill="#7db5a9"/>
    </g>
    <g>
      <line x1="1017.4" y1="563.48" x2="1019.86" y2="536.84" fill="#f9d4f2"/>
      <path d="M1016.9,563.43c-3.53-8.12-2.92-19.42,2.46-26.63.2-.26.58-.3.84-.1,4.25,7.76,2.61,19.67-2.3,26.83-.25.35-.82.3-1-.09h0Z" fill="#7db5a9"/>
    </g>
  </g>
  <g>
    <path d="M1513.58,183.85c5.51-1.96,5.39-20.28-6.58-29.55-1.04-.8-2.52-.23-3.54.59-6.72,5.47-8.62,19.93-5.35,29.16" fill="#f9d4f2" stroke="#7db5a9" stroke-linecap="round" stroke-miterlimit="10" stroke-width="3"/>
    <g>
      <line x1="1507.6" y1="193.36" x2="1506.63" y2="172.47" fill="#f9d4f2"/>
      <path d="M1507.1,193.39c-3.4-6.13-4.12-14.51-.97-20.89.15-.28.51-.39.79-.24,4,5.6,3.96,14.93,1.18,21.08-.18.4-.78.42-1,.05h0Z" fill="#7db5a9"/>
    </g>
    <g>
      <line x1="1507.19" y1="194.07" x2="1493.6" y2="171.17" fill="#f9d4f2"/>
      <path d="M1506.76,194.33c-8.11-4.07-14.39-13.68-13.59-22.91.04-.34.35-.59.69-.55,8.53,3.5,14.11,13.94,13.76,22.95-.02.42-.49.69-.86.51h0Z" fill="#7db5a9"/>
    </g>
    <g>
      <line x1="1508.59" y1="194.27" x2="1520.71" y2="169.91" fill="#f9d4f2"/>
      <path d="M1508.15,194.04c-.3-8.95,4.45-19.47,12.11-24.36.28-.17.64-.08.81.2,1.13,8.85-4.83,19.61-12.03,24.6-.36.24-.88-.02-.9-.45h0Z" fill="#7db5a9"/>
    </g>
  </g>
  <g>
    <path d="M1111.6,356.15c5.51-1.96,5.39-20.28-6.58-29.55-1.04-.8-2.52-.23-3.54.59-6.72,5.47-8.62,19.93-5.35,29.16" fill="#f9d4f2" stroke="#7db5a9" stroke-linecap="round" stroke-miterlimit="10" stroke-width="3"/>
    <g>
      <line x1="1105.63" y1="365.67" x2="1104.66" y2="344.78" fill="#f9d4f2"/>
      <path d="M1105.13,365.7c-3.4-6.13-4.12-14.51-.97-20.89.15-.28.51-.39.79-.24,4,5.6,3.96,14.93,1.18,21.08-.18.4-.78.42-1,.05h0Z" fill="#7db5a9"/>
    </g>
    <g>
      <line x1="1105.21" y1="366.38" x2="1091.62" y2="343.47" fill="#f9d4f2"/>
      <path d="M1104.78,366.64c-8.11-4.07-14.39-13.68-13.59-22.91.04-.34.35-.59.69-.55,8.53,3.5,14.11,13.94,13.76,22.95-.02.42-.49.69-.86.51h0Z" fill="#7db5a9"/>
    </g>
    <g>
      <line x1="1106.62" y1="366.57" x2="1118.73" y2="342.22" fill="#f9d4f2"/>
      <path d="M1106.17,366.35c-.3-8.95,4.45-19.47,12.11-24.36.28-.17.64-.08.81.2,1.13,8.85-4.83,19.61-12.03,24.6-.36.24-.88-.02-.9-.45h0Z" fill="#7db5a9"/>
    </g>
  </g>
  <path d="M222.44,829.63c49.56-19.78,83.78-67.78,92.44-111.78" fill="none" stroke="#7db5a9" stroke-linecap="round" stroke-miterlimit="10" stroke-width="3"/>
</svg>