<?xml version="1.0" encoding="UTF-8"?>
<svg id="_Слой_1" data-name="Слой_1" xmlns="http://www.w3.org/2000/svg" version="1.1" viewBox="0 0 1922.08 1041">
  <!-- Generator: Adobe Illustrator 30.3.0, SVG Export Plug-In . SVG Version: 2.1.3 Build 182)  -->
  <path d="M1345.41,313.19h0s0,0,0,0c-12.32.87-22.13,10.68-23,23h0s0,0,0,0c-.87-12.32-10.68-22.13-23-23h0s0,0,0,0c12.32-.87,22.13-10.68,23-23h0s0,0,0,0c.87,12.32,10.68,22.13,23,23Z" fill="#e4b56f"/>
  <path d="M1783.69,387.24h0s0,0,0,0c-7.95.56-14.27,6.89-14.83,14.83h0s0,0,0,0c-.56-7.95-6.89-14.27-14.83-14.83h0s0,0,0,0c7.95-.56,14.27-6.89,14.83-14.83h0s0,0,0,0c.56,7.95,6.89,14.27,14.83,14.83Z" fill="#7db5a9"/>
  <path d="M550.35,969.91h0s0,0,0,0c-7.95.56-14.27,6.89-14.83,14.83h0s0,0,0,0c-.56-7.95-6.89-14.27-14.83-14.83h0s0,0,0,0c7.95-.56,14.27-6.89,14.83-14.83h0s0,0,0,0c.56,7.95,6.89,14.27,14.83,14.83Z" fill="#e4b56f"/>
  <path d="M1260.08,325.19h0,0c-6.61.47-11.87,5.73-12.33,12.33h0s0,0,0,0c-.47-6.61-5.73-11.87-12.33-12.33h0,0c6.61-.47,11.87-5.73,12.33-12.33h0s0,0,0,0c.47,6.61,5.73,11.87,12.33,12.33Z" fill="#d39ec8"/>
  <path d="M88.52,345.24h0,0c-6.61.47-11.87,5.73-12.33,12.33h0s0,0,0,0c-.47-6.61-5.73-11.87-12.33-12.33h0,0c6.61-.47,11.87-5.73,12.33-12.33h0s0,0,0,0c.47,6.61,5.73,11.87,12.33,12.33Z" fill="#e89d85"/>
  <g display="none">
    <g>
      <path d="M1728.8,997.88c10.41-1.46,34.63-3.77,30.83-23.67l-5.17-4c-19.5.33-16.67,21.83-25.67,27.67Z" fill="none" stroke="#e89d85" stroke-miterlimit="10" stroke-width="2"/>
      <path d="M1754.46,970.22c.5-6.6,36.12-34.99,55.44-41.32.29-.09.56.19.46.47-2.22,6.37-38.4,36.36-50.73,44.85" fill="none" stroke="#e89d85" stroke-miterlimit="10" stroke-width="2"/>
      <path d="M1769.46,953.72c3.46,2.08,5.54,4.81,6.67,8" fill="none" stroke="#e89d85" stroke-miterlimit="10" stroke-width="2"/>
      <path d="M1772.3,951.55c3.46,2.08,5.54,4.81,6.67,8" fill="none" stroke="#e89d85" stroke-miterlimit="10" stroke-width="2"/>
    </g>
  </g>
</svg>